<svg width="40" height="40" viewBox="0 0 40 40" fill="none" xmlns="http://www.w3.org/2000/svg">
<rect x="1" y="1" width="38" height="38" rx="19" stroke="#9F7C62" stroke-width="2"/>
<path d="M18.3426 23.8655C17.7134 27.1632 16.9456 30.3246 14.6702 31.9761C13.9672 26.9918 15.7011 23.2485 16.5064 19.2743C15.1333 16.9637 16.6713 12.3135 19.5666 13.459C23.1292 14.8684 16.4818 22.0502 20.9438 22.9473C25.6034 23.8836 27.5058 14.8625 24.6169 11.9292C20.4421 7.69298 12.4648 11.8327 13.4456 17.8977C13.6841 19.3801 15.2158 19.8299 14.0578 21.8766C11.3859 21.2836 10.5888 19.1766 10.6912 16.3672C10.8566 11.7684 14.8228 8.54911 18.8017 8.10351C23.8332 7.54036 28.5555 9.9503 29.2075 14.6836C29.942 20.0264 26.9368 25.8123 21.5561 25.3959C20.0976 25.2825 19.4853 24.5596 18.3426 23.8655Z" fill="#9F7C62"/>
</svg>
