<svg width="40" height="40" viewBox="0 0 40 40" fill="none" xmlns="http://www.w3.org/2000/svg">
<rect x="1" y="1" width="38" height="38" rx="19" stroke="#9F7C62" stroke-width="2"/>
<path fill-rule="evenodd" clip-rule="evenodd" d="M15.548 29.5997C24.6044 29.5997 29.558 22.2119 29.558 15.8061C29.558 15.5958 29.558 15.3871 29.5436 15.1791C30.5072 14.4939 31.3388 13.6431 32 12.6696C31.1024 13.0618 30.1484 13.3191 29.1728 13.4325C30.2 12.8264 30.9692 11.8742 31.3376 10.7506C30.3704 11.3154 29.3132 11.7139 28.2104 11.9278C26.3456 9.97602 23.2268 9.88145 21.2432 11.7174C19.9652 12.9012 19.4216 14.6663 19.8188 16.3499C15.86 16.1537 12.1712 14.3131 9.6704 11.285C8.3636 13.5002 9.032 16.333 11.1956 17.7555C10.412 17.7331 9.6452 17.5254 8.96 17.1497V17.2112C8.9612 19.5186 10.6136 21.5053 12.9104 21.9625C12.1856 22.1575 11.4248 22.1858 10.688 22.0452C11.3324 24.0206 13.1816 25.3736 15.2876 25.4125C13.544 26.7618 11.39 27.4944 9.1724 27.492C8.7812 27.4909 8.39 27.4684 8 27.4223C10.2524 28.8448 12.872 29.5997 15.548 29.5961" fill="#9F7C62"/>
</svg>
