<svg width="40" height="40" viewBox="0 0 40 40" fill="none" xmlns="http://www.w3.org/2000/svg">
<rect x="1" y="1" width="38" height="38" rx="19" stroke="#9F7C62" stroke-width="2"/>
<path d="M14.014 16.0061C14.1283 15.1024 15.3028 13.8741 16.2349 14.0104L16.2334 14.0089C17.1405 14.1813 17.8586 15.7426 18.2635 16.4446C18.5504 16.954 18.3641 17.4701 18.0965 17.6879C17.7355 17.9788 17.171 18.3803 17.2894 18.7834C17.5 19.5 20 22 21.2296 22.7107C21.695 22.9797 22.0325 22.2702 22.3207 21.9067C22.5301 21.6271 23.0466 21.46 23.5548 21.736C24.3138 22.178 25.0288 22.6917 25.69 23.27C26.0202 23.546 26.0977 23.9539 25.8689 24.385C25.4659 25.1443 24.3003 26.1456 23.4542 25.9421C21.9764 25.5868 16 23.27 14.0803 16.558C13.9724 16.2405 13.9996 16.1204 14.014 16.0061Z" fill="#9F7C62"/>
<path fill-rule="evenodd" clip-rule="evenodd" d="M20 31C18.7764 31 18.0994 30.8687 17 30.5L14.8944 31.5528C13.5646 32.2177 12 31.2507 12 29.7639V27.5C9.84655 25.492 9 23.1767 9 20C9 13.9249 13.9249 9 20 9C26.0751 9 31 13.9249 31 20C31 26.0751 26.0751 31 20 31ZM14 26.6303L13.3639 26.0372C11.6909 24.4772 11 22.7331 11 20C11 15.0294 15.0294 11 20 11C24.9706 11 29 15.0294 29 20C29 24.9706 24.9706 29 20 29C19.0143 29 18.552 28.911 17.636 28.6038L16.8485 28.3397L14 29.7639V26.6303Z" fill="#9F7C62"/>
</svg>
